<?xml version="1.0" encoding="UTF-8" standalone="no"?>
<svg
   width="16"
   height="16"
   version="1.1"
   id="svg1"
   sodipodi:docname="AutoKey_AnimatedSpriteFrames.svg"
   xml:space="preserve"
   inkscape:version="1.4.2 (f4327f4, 2025-05-13)"
   inkscape:export-filename="..\..\godot\editor\icons\AutoKey_AnimatedSpriteFrames.svg"
   inkscape:export-xdpi="96"
   inkscape:export-ydpi="96"
   xmlns:inkscape="http://www.inkscape.org/namespaces/inkscape"
   xmlns:sodipodi="http://sodipodi.sourceforge.net/DTD/sodipodi-0.dtd"
   xmlns="http://www.w3.org/2000/svg"
   xmlns:svg="http://www.w3.org/2000/svg"><defs
     id="defs1" /><sodipodi:namedview
     id="namedview1"
     pagecolor="#ffffff"
     bordercolor="#000000"
     borderopacity="0.25"
     inkscape:showpageshadow="2"
     inkscape:pageopacity="0.0"
     inkscape:pagecheckerboard="0"
     inkscape:deskcolor="#d1d1d1"
     inkscape:zoom="26.71875"
     inkscape:cx="3.1625731"
     inkscape:cy="9.6374269"
     inkscape:window-width="1839"
     inkscape:window-height="1057"
     inkscape:window-x="1993"
     inkscape:window-y="1072"
     inkscape:window-maximized="1"
     inkscape:current-layer="svg1" /><path
     style="display:none;fill:#e0e0e0;fill-opacity:1"
     d="m 13,13 v 2 h 2 v -2 z"
     id="path18" /><path
     style="display:inline;fill:#e0e0e0;fill-opacity:1"
     d="m 9,13 v 2 h 2 v -2 z"
     id="path17" /><path
     style="display:inline;fill:#e0e0e0;fill-opacity:1"
     d="m 5,13 v 2 h 2 v -2 z"
     id="path16" /><path
     style="display:inline;fill:#e0e0e0;fill-opacity:1"
     d="m 1,13 v 2 h 2 v -2 z"
     id="path15" /><path
     style="display:none;fill:#e0e0e0;fill-opacity:1"
     d="m 13,9 v 2 h 2 V 9 Z"
     id="path9" /><path
     style="display:inline;fill:#e0e0e0;fill-opacity:1"
     d="m 13,5 v 2 h 2 V 5 Z"
     id="path14" /><path
     style="display:inline;fill:#e0e0e0;fill-opacity:1"
     d="m 13,1 v 2 h 2 V 1 Z"
     id="path13" /><path
     style="display:none"
     d="M 4,9 H 8 A 2,1 0 0 1 4,9 Z"
     id="path8" /><path
     style="display:none"
     d="m 8,6 a 1,1 0 0 1 2,0 V 7 A 1,1 0 0 1 8,7 Z"
     id="path6" /><path
     style="display:none"
     d="M 2,6 A 1,1 0 0 1 4,6 V 7 A 1,1 0 0 1 2,7 Z"
     id="path5" /><path
     style="display:none"
     d="M 3,1 A 2,2 0 0 0 1,3 v 6 a 2,2 0 0 0 2,2 H 9 A 2,2 0 0 0 11,9 V 3 A 2,2 0 0 0 9,1 Z"
     id="path1" /><g
     fill="#8da5f3"
     id="g3"
     transform="matrix(0.63820663,0,0,0.63820663,0.57290449,1.2111111)"
     style="display:inline"
     inkscape:label="AnimatedSprited2D"><path
       fill-opacity="0.4"
       d="M 7,0 A 2,2 0 0 0 5,2 h 7 a 2,2 0 0 1 2,2 v 6 A 2,2 0 0 0 16,8 V 2 A 2,2 0 0 0 14,0 Z"
       id="path1-4" /><path
       fill-opacity="0.6"
       d="M 5,2 A 2,2 0 0 0 3,4 h 7 a 2,2 0 0 1 2,2 v 7 a 2,2 0 0 0 2,-2 V 4 A 2,2 0 0 0 12,2 Z"
       id="path2-2" /><path
       d="M 3,4 A 2,2 0 0 0 1,6 v 7 a 2,2 0 0 0 2,2 h 7 a 2,2 0 0 0 2,-2 V 6 A 2,2 0 0 0 10,4 Z M 2,9 a 1,1 0 0 1 2,0 v 1 a 1,1 0 0 1 -2,0 z m 7,0 a 1,1 0 0 1 2,0 v 1 a 1,1 0 0 1 -2,0 z m 0,3 a 2.5,2 0 0 1 -5,0 z"
       id="path3" /></g><g
     id="g1"
     transform="matrix(0.43324979,0,0,0.43324979,8.5012531,8.5012731)"
     style="display:inline"
     inkscape:label="Key"><path
       fill="#5fff97"
       d="m 11,9 v 2 H 9 v 2 h 2 v 2 h 2 v -2 h 2 V 11 H 13 V 9 Z"
       id="path1-1" /><path
       fill="#e0e0e0"
       d="M 11,1 A 4,4 0 0 0 7.1309,4 H 1 V 6 H 2 V 8 H 5 V 6 H 7.1328 A 4,4 0 0 0 10,8.8691 V 7.99996 h 3.6387 a 4,4 0 0 0 1.3613,-3 4,4 0 0 0 -4,-4 z m 0,2 A 2,2 0 0 1 13,5 2,2 0 0 1 11,7 2,2 0 0 1 9,5 2,2 0 0 1 11,3 Z"
       id="path2"
       style="fill:#f9dc30;fill-opacity:1" /></g></svg>
